%TF.GenerationSoftware,KiCad,Pcbnew,7.0.8*%
%TF.CreationDate,2023-10-11T13:53:52-07:00*%
%TF.ProjectId,PCB_555_Timer,5043425f-3535-4355-9f54-696d65722e6b,rev?*%
%TF.SameCoordinates,Original*%
%TF.FileFunction,Copper,L1,Top*%
%TF.FilePolarity,Positive*%
%FSLAX46Y46*%
G04 Gerber Fmt 4.6, Leading zero omitted, Abs format (unit mm)*
G04 Created by KiCad (PCBNEW 7.0.8) date 2023-10-11 13:53:52*
%MOMM*%
%LPD*%
G01*
G04 APERTURE LIST*
G04 Aperture macros list*
%AMRoundRect*
0 Rectangle with rounded corners*
0 $1 Rounding radius*
0 $2 $3 $4 $5 $6 $7 $8 $9 X,Y pos of 4 corners*
0 Add a 4 corners polygon primitive as box body*
4,1,4,$2,$3,$4,$5,$6,$7,$8,$9,$2,$3,0*
0 Add four circle primitives for the rounded corners*
1,1,$1+$1,$2,$3*
1,1,$1+$1,$4,$5*
1,1,$1+$1,$6,$7*
1,1,$1+$1,$8,$9*
0 Add four rect primitives between the rounded corners*
20,1,$1+$1,$2,$3,$4,$5,0*
20,1,$1+$1,$4,$5,$6,$7,0*
20,1,$1+$1,$6,$7,$8,$9,0*
20,1,$1+$1,$8,$9,$2,$3,0*%
G04 Aperture macros list end*
%TA.AperFunction,SMDPad,CuDef*%
%ADD10R,2.290000X3.000000*%
%TD*%
%TA.AperFunction,SMDPad,CuDef*%
%ADD11RoundRect,0.150000X-0.825000X-0.150000X0.825000X-0.150000X0.825000X0.150000X-0.825000X0.150000X0*%
%TD*%
%TA.AperFunction,SMDPad,CuDef*%
%ADD12RoundRect,0.250000X-0.350000X-0.450000X0.350000X-0.450000X0.350000X0.450000X-0.350000X0.450000X0*%
%TD*%
%TA.AperFunction,SMDPad,CuDef*%
%ADD13RoundRect,0.250000X0.450000X-0.350000X0.450000X0.350000X-0.450000X0.350000X-0.450000X-0.350000X0*%
%TD*%
%TA.AperFunction,SMDPad,CuDef*%
%ADD14RoundRect,0.250000X-0.450000X0.350000X-0.450000X-0.350000X0.450000X-0.350000X0.450000X0.350000X0*%
%TD*%
%TA.AperFunction,ComponentPad*%
%ADD15RoundRect,0.250000X0.600000X0.750000X-0.600000X0.750000X-0.600000X-0.750000X0.600000X-0.750000X0*%
%TD*%
%TA.AperFunction,ComponentPad*%
%ADD16O,1.700000X2.000000*%
%TD*%
%TA.AperFunction,SMDPad,CuDef*%
%ADD17RoundRect,0.250001X0.462499X0.624999X-0.462499X0.624999X-0.462499X-0.624999X0.462499X-0.624999X0*%
%TD*%
%TA.AperFunction,SMDPad,CuDef*%
%ADD18RoundRect,0.250001X-0.462499X-0.624999X0.462499X-0.624999X0.462499X0.624999X-0.462499X0.624999X0*%
%TD*%
%TA.AperFunction,SMDPad,CuDef*%
%ADD19RoundRect,0.250000X-0.337500X-0.475000X0.337500X-0.475000X0.337500X0.475000X-0.337500X0.475000X0*%
%TD*%
%TA.AperFunction,SMDPad,CuDef*%
%ADD20RoundRect,0.250000X0.425000X-0.537500X0.425000X0.537500X-0.425000X0.537500X-0.425000X-0.537500X0*%
%TD*%
%TA.AperFunction,ViaPad*%
%ADD21C,0.800000*%
%TD*%
%TA.AperFunction,Conductor*%
%ADD22C,0.254000*%
%TD*%
%TA.AperFunction,Conductor*%
%ADD23C,0.250000*%
%TD*%
%TA.AperFunction,Conductor*%
%ADD24C,0.508000*%
%TD*%
G04 APERTURE END LIST*
D10*
%TO.P,U1,9*%
%TO.N,N/C*%
X146207500Y-102280000D03*
D11*
%TO.P,U1,8,VCC*%
%TO.N,+9V*%
X148682500Y-100375000D03*
%TO.P,U1,7,DIS*%
%TO.N,/pin_7*%
X148682500Y-101645000D03*
%TO.P,U1,6,THR*%
%TO.N,/pin_2*%
X148682500Y-102915000D03*
%TO.P,U1,5,CV*%
%TO.N,Net-(U1-CV)*%
X148682500Y-104185000D03*
%TO.P,U1,4,R*%
%TO.N,+9V*%
X143732500Y-104185000D03*
%TO.P,U1,3,Q*%
%TO.N,/pin_3*%
X143732500Y-102915000D03*
%TO.P,U1,2,TR*%
%TO.N,/pin_2*%
X143732500Y-101645000D03*
%TO.P,U1,1,GND*%
%TO.N,GND*%
X143732500Y-100375000D03*
%TD*%
D12*
%TO.P,R4,1*%
%TO.N,/pin_3*%
X143780000Y-106680000D03*
%TO.P,R4,2*%
%TO.N,Net-(D2-A)*%
X145780000Y-106680000D03*
%TD*%
D13*
%TO.P,R3,1*%
%TO.N,Net-(D1-K)*%
X139700000Y-103600000D03*
%TO.P,R3,2*%
%TO.N,/pin_3*%
X139700000Y-101600000D03*
%TD*%
D14*
%TO.P,R2,1*%
%TO.N,/pin_7*%
X152400000Y-99600000D03*
%TO.P,R2,2*%
%TO.N,/pin_2*%
X152400000Y-101600000D03*
%TD*%
%TO.P,R1,1*%
%TO.N,+9V*%
X152400000Y-95520000D03*
%TO.P,R1,2*%
%TO.N,/pin_7*%
X152400000Y-97520000D03*
%TD*%
D15*
%TO.P,J1,1,Pin_1*%
%TO.N,+9V*%
X147320000Y-91440000D03*
D16*
%TO.P,J1,2,Pin_2*%
%TO.N,GND*%
X144820000Y-91440000D03*
%TD*%
D17*
%TO.P,D2,1,K*%
%TO.N,GND*%
X152835000Y-106680000D03*
%TO.P,D2,2,A*%
%TO.N,Net-(D2-A)*%
X149860000Y-106680000D03*
%TD*%
D18*
%TO.P,D1,1,K*%
%TO.N,Net-(D1-K)*%
X138212500Y-106680000D03*
%TO.P,D1,2,A*%
%TO.N,+9V*%
X141187500Y-106680000D03*
%TD*%
D19*
%TO.P,C2,2*%
%TO.N,GND*%
X154475000Y-104140000D03*
%TO.P,C2,1*%
%TO.N,Net-(U1-CV)*%
X152400000Y-104140000D03*
%TD*%
D20*
%TO.P,C1,2*%
%TO.N,GND*%
X139700000Y-96520000D03*
%TO.P,C1,1*%
%TO.N,/pin_2*%
X139700000Y-99395000D03*
%TD*%
D21*
%TO.N,/pin_2*%
X154940000Y-99060000D03*
X137160000Y-99060000D03*
%TO.N,GND*%
X142240000Y-99060000D03*
X154940000Y-101600000D03*
%TO.N,+9V*%
X139700000Y-109220000D03*
X154940000Y-96520000D03*
%TD*%
D22*
%TO.N,/pin_2*%
X152400000Y-101600000D02*
X154940000Y-99060000D01*
D23*
X137495000Y-99395000D02*
X137160000Y-99060000D01*
X139700000Y-99395000D02*
X137495000Y-99395000D01*
%TO.N,GND*%
X142417500Y-99060000D02*
X143732500Y-100375000D01*
X142240000Y-99060000D02*
X142417500Y-99060000D01*
X142240000Y-98882500D02*
X142240000Y-99060000D01*
X139700000Y-96520000D02*
X139877500Y-96520000D01*
X139877500Y-96520000D02*
X142240000Y-98882500D01*
D24*
X154475000Y-102065000D02*
X154940000Y-101600000D01*
X154475000Y-104140000D02*
X154475000Y-102065000D01*
%TO.N,+9V*%
X147320000Y-99012500D02*
X147320000Y-91440000D01*
X148682500Y-100375000D02*
X147320000Y-99012500D01*
D22*
%TO.N,/pin_3*%
X141617842Y-103517842D02*
X141015000Y-102915000D01*
X141617842Y-104346158D02*
X141617842Y-103517842D01*
X140148000Y-105816000D02*
X141617842Y-104346158D01*
X140148000Y-107544000D02*
X140148000Y-105816000D01*
X138973000Y-108719000D02*
X140148000Y-107544000D01*
X138973000Y-109521134D02*
X138973000Y-108719000D01*
X139398866Y-109947000D02*
X138973000Y-109521134D01*
X140513000Y-109947000D02*
X139398866Y-109947000D01*
X143780000Y-106680000D02*
X140513000Y-109947000D01*
D24*
%TO.N,+9V*%
X141187500Y-107732500D02*
X139700000Y-109220000D01*
X141187500Y-106680000D02*
X141187500Y-107732500D01*
X141237500Y-106680000D02*
X143732500Y-104185000D01*
X141187500Y-106680000D02*
X141237500Y-106680000D01*
D23*
%TO.N,Net-(D1-K)*%
X139700000Y-105192500D02*
X138212500Y-106680000D01*
X139700000Y-103600000D02*
X139700000Y-105192500D01*
D24*
%TO.N,+9V*%
X153940000Y-95520000D02*
X154940000Y-96520000D01*
X152400000Y-95520000D02*
X153940000Y-95520000D01*
%TO.N,GND*%
X152835000Y-105780000D02*
X154475000Y-104140000D01*
X152835000Y-106680000D02*
X152835000Y-105780000D01*
%TO.N,+9V*%
X148682500Y-99237500D02*
X148682500Y-100375000D01*
X152400000Y-95520000D02*
X148682500Y-99237500D01*
D22*
%TO.N,/pin_7*%
X150355000Y-101645000D02*
X148682500Y-101645000D01*
X152400000Y-99600000D02*
X150355000Y-101645000D01*
X152400000Y-99600000D02*
X152400000Y-97520000D01*
%TO.N,/pin_2*%
X151085000Y-102915000D02*
X148682500Y-102915000D01*
X152400000Y-101600000D02*
X151085000Y-102915000D01*
%TO.N,Net-(U1-CV)*%
X148727500Y-104140000D02*
X148682500Y-104185000D01*
X152400000Y-104140000D02*
X148727500Y-104140000D01*
%TO.N,Net-(D2-A)*%
X145780000Y-106680000D02*
X149860000Y-106680000D01*
%TO.N,/pin_3*%
X141015000Y-102915000D02*
X143732500Y-102915000D01*
X139700000Y-101600000D02*
X141015000Y-102915000D01*
D23*
%TO.N,/pin_2*%
X141950000Y-101645000D02*
X143732500Y-101645000D01*
X139700000Y-99395000D02*
X141950000Y-101645000D01*
X139700000Y-99087500D02*
X139700000Y-99395000D01*
%TD*%
%TA.AperFunction,Conductor*%
%TO.N,GND*%
G36*
X159962539Y-86380185D02*
G01*
X160008294Y-86432989D01*
X160019500Y-86484500D01*
X160019500Y-116715500D01*
X159999815Y-116782539D01*
X159947011Y-116828294D01*
X159895500Y-116839500D01*
X132204500Y-116839500D01*
X132137461Y-116819815D01*
X132091706Y-116767011D01*
X132080500Y-116715500D01*
X132080500Y-111891187D01*
X135409500Y-111891187D01*
X135429794Y-112025823D01*
X135448604Y-112150615D01*
X135448605Y-112150617D01*
X135448606Y-112150623D01*
X135525938Y-112401326D01*
X135639767Y-112637696D01*
X135639768Y-112637697D01*
X135639770Y-112637700D01*
X135639772Y-112637704D01*
X135787567Y-112854479D01*
X135966014Y-113046801D01*
X135966018Y-113046804D01*
X135966019Y-113046805D01*
X136171143Y-113210386D01*
X136398357Y-113341568D01*
X136642584Y-113437420D01*
X136898370Y-113495802D01*
X136898376Y-113495802D01*
X136898379Y-113495803D01*
X137094500Y-113510500D01*
X137094506Y-113510500D01*
X137225500Y-113510500D01*
X137421620Y-113495803D01*
X137421622Y-113495802D01*
X137421630Y-113495802D01*
X137677416Y-113437420D01*
X137921643Y-113341568D01*
X138148857Y-113210386D01*
X138353981Y-113046805D01*
X138532433Y-112854479D01*
X138680228Y-112637704D01*
X138794063Y-112401323D01*
X138871396Y-112150615D01*
X138910499Y-111891187D01*
X153189500Y-111891187D01*
X153209794Y-112025823D01*
X153228604Y-112150615D01*
X153228605Y-112150617D01*
X153228606Y-112150623D01*
X153305938Y-112401326D01*
X153419767Y-112637696D01*
X153419768Y-112637697D01*
X153419770Y-112637700D01*
X153419772Y-112637704D01*
X153567567Y-112854479D01*
X153746014Y-113046801D01*
X153746018Y-113046804D01*
X153746019Y-113046805D01*
X153951143Y-113210386D01*
X154178357Y-113341568D01*
X154422584Y-113437420D01*
X154678370Y-113495802D01*
X154678376Y-113495802D01*
X154678379Y-113495803D01*
X154874500Y-113510500D01*
X154874506Y-113510500D01*
X155005500Y-113510500D01*
X155201620Y-113495803D01*
X155201622Y-113495802D01*
X155201630Y-113495802D01*
X155457416Y-113437420D01*
X155701643Y-113341568D01*
X155928857Y-113210386D01*
X156133981Y-113046805D01*
X156312433Y-112854479D01*
X156460228Y-112637704D01*
X156574063Y-112401323D01*
X156651396Y-112150615D01*
X156690500Y-111891182D01*
X156690500Y-111628818D01*
X156651396Y-111369385D01*
X156574063Y-111118677D01*
X156562121Y-111093880D01*
X156460232Y-110882303D01*
X156460231Y-110882302D01*
X156460230Y-110882301D01*
X156460228Y-110882296D01*
X156312433Y-110665521D01*
X156230001Y-110576680D01*
X156133985Y-110473198D01*
X156067135Y-110419887D01*
X155928857Y-110309614D01*
X155701643Y-110178432D01*
X155457416Y-110082580D01*
X155457411Y-110082578D01*
X155457402Y-110082576D01*
X155239818Y-110032914D01*
X155201630Y-110024198D01*
X155201629Y-110024197D01*
X155201625Y-110024197D01*
X155201620Y-110024196D01*
X155005500Y-110009500D01*
X155005494Y-110009500D01*
X154874506Y-110009500D01*
X154874500Y-110009500D01*
X154678379Y-110024196D01*
X154678374Y-110024197D01*
X154422597Y-110082576D01*
X154422578Y-110082582D01*
X154178356Y-110178432D01*
X153951143Y-110309614D01*
X153746014Y-110473198D01*
X153567567Y-110665520D01*
X153419768Y-110882302D01*
X153419767Y-110882303D01*
X153305938Y-111118673D01*
X153228606Y-111369376D01*
X153228605Y-111369381D01*
X153228604Y-111369385D01*
X153213853Y-111467247D01*
X153189500Y-111628812D01*
X153189500Y-111891187D01*
X138910499Y-111891187D01*
X138910500Y-111891182D01*
X138910500Y-111628818D01*
X138871396Y-111369385D01*
X138794063Y-111118677D01*
X138782121Y-111093880D01*
X138680232Y-110882303D01*
X138680231Y-110882302D01*
X138680230Y-110882301D01*
X138680228Y-110882296D01*
X138532433Y-110665521D01*
X138450001Y-110576680D01*
X138353985Y-110473198D01*
X138287135Y-110419887D01*
X138148857Y-110309614D01*
X137921643Y-110178432D01*
X137677416Y-110082580D01*
X137677411Y-110082578D01*
X137677402Y-110082576D01*
X137459818Y-110032914D01*
X137421630Y-110024198D01*
X137421629Y-110024197D01*
X137421625Y-110024197D01*
X137421620Y-110024196D01*
X137225500Y-110009500D01*
X137225494Y-110009500D01*
X137094506Y-110009500D01*
X137094500Y-110009500D01*
X136898379Y-110024196D01*
X136898374Y-110024197D01*
X136642597Y-110082576D01*
X136642578Y-110082582D01*
X136398356Y-110178432D01*
X136171143Y-110309614D01*
X135966014Y-110473198D01*
X135787567Y-110665520D01*
X135639768Y-110882302D01*
X135639767Y-110882303D01*
X135525938Y-111118673D01*
X135448606Y-111369376D01*
X135448605Y-111369381D01*
X135448604Y-111369385D01*
X135433853Y-111467247D01*
X135409500Y-111628812D01*
X135409500Y-111891187D01*
X132080500Y-111891187D01*
X132080500Y-99060000D01*
X136254540Y-99060000D01*
X136274326Y-99248256D01*
X136274327Y-99248259D01*
X136332818Y-99428277D01*
X136332821Y-99428284D01*
X136427467Y-99592216D01*
X136511828Y-99685908D01*
X136554129Y-99732888D01*
X136707265Y-99844148D01*
X136707270Y-99844151D01*
X136880192Y-99921142D01*
X136880197Y-99921144D01*
X137065354Y-99960500D01*
X137193423Y-99960500D01*
X137253159Y-99975837D01*
X137262908Y-99981197D01*
X137282312Y-99986179D01*
X137300710Y-99992478D01*
X137319105Y-100000438D01*
X137365129Y-100007726D01*
X137370832Y-100008907D01*
X137415981Y-100020500D01*
X137436016Y-100020500D01*
X137455413Y-100022026D01*
X137475196Y-100025160D01*
X137521584Y-100020775D01*
X137527422Y-100020500D01*
X138423988Y-100020500D01*
X138491027Y-100040185D01*
X138536782Y-100092989D01*
X138541694Y-100105496D01*
X138590185Y-100251831D01*
X138590187Y-100251836D01*
X138682289Y-100401157D01*
X138772201Y-100491069D01*
X138805686Y-100552392D01*
X138800702Y-100622084D01*
X138772201Y-100666431D01*
X138657289Y-100781342D01*
X138565187Y-100930663D01*
X138565186Y-100930666D01*
X138510001Y-101097203D01*
X138510001Y-101097204D01*
X138510000Y-101097204D01*
X138499500Y-101199983D01*
X138499500Y-102000001D01*
X138499501Y-102000019D01*
X138510000Y-102102796D01*
X138510001Y-102102799D01*
X138565185Y-102269331D01*
X138565187Y-102269336D01*
X138657289Y-102418657D01*
X138750951Y-102512319D01*
X138784436Y-102573642D01*
X138779452Y-102643334D01*
X138750951Y-102687681D01*
X138657289Y-102781342D01*
X138565187Y-102930663D01*
X138565186Y-102930666D01*
X138510001Y-103097203D01*
X138510001Y-103097204D01*
X138510000Y-103097204D01*
X138499500Y-103199983D01*
X138499500Y-104000001D01*
X138499501Y-104000019D01*
X138510000Y-104102796D01*
X138510001Y-104102799D01*
X138565185Y-104269331D01*
X138565187Y-104269336D01*
X138577793Y-104289774D01*
X138657288Y-104418656D01*
X138781344Y-104542712D01*
X138910752Y-104622531D01*
X138930668Y-104634815D01*
X138951110Y-104641588D01*
X138989502Y-104654310D01*
X139046947Y-104694081D01*
X139073772Y-104758596D01*
X139074500Y-104772016D01*
X139074500Y-104882047D01*
X139054815Y-104949086D01*
X139038181Y-104969728D01*
X138739729Y-105268181D01*
X138678406Y-105301666D01*
X138652048Y-105304500D01*
X137699984Y-105304500D01*
X137597204Y-105315000D01*
X137597203Y-105315001D01*
X137430664Y-105370186D01*
X137430662Y-105370187D01*
X137281348Y-105462286D01*
X137281344Y-105462289D01*
X137157289Y-105586344D01*
X137157286Y-105586348D01*
X137065187Y-105735662D01*
X137065186Y-105735664D01*
X137010001Y-105902203D01*
X137010000Y-105902204D01*
X136999500Y-106004984D01*
X136999500Y-107355015D01*
X137010000Y-107457795D01*
X137010001Y-107457796D01*
X137065186Y-107624335D01*
X137065187Y-107624337D01*
X137157286Y-107773651D01*
X137157289Y-107773655D01*
X137281344Y-107897710D01*
X137281348Y-107897713D01*
X137430662Y-107989812D01*
X137430664Y-107989813D01*
X137430666Y-107989814D01*
X137597203Y-108044999D01*
X137699992Y-108055500D01*
X137699997Y-108055500D01*
X138448716Y-108055500D01*
X138515755Y-108075185D01*
X138561510Y-108127989D01*
X138571454Y-108197147D01*
X138542429Y-108260703D01*
X138539120Y-108264369D01*
X138522322Y-108282258D01*
X138501378Y-108303203D01*
X138501375Y-108303205D01*
X138497106Y-108308709D01*
X138493315Y-108313147D01*
X138461308Y-108347230D01*
X138461305Y-108347234D01*
X138451606Y-108364877D01*
X138440928Y-108381133D01*
X138428594Y-108397034D01*
X138428589Y-108397042D01*
X138410025Y-108439943D01*
X138407454Y-108445191D01*
X138384927Y-108486167D01*
X138379920Y-108505668D01*
X138373621Y-108524064D01*
X138366893Y-108539612D01*
X138365625Y-108542544D01*
X138365624Y-108542546D01*
X138358312Y-108588716D01*
X138357127Y-108594438D01*
X138345500Y-108639723D01*
X138345500Y-108659858D01*
X138343973Y-108679257D01*
X138340825Y-108699131D01*
X138345225Y-108745677D01*
X138345500Y-108751515D01*
X138345500Y-109438166D01*
X138343772Y-109453815D01*
X138344054Y-109453842D01*
X138343319Y-109461609D01*
X138345500Y-109530993D01*
X138345500Y-109560611D01*
X138346371Y-109567514D01*
X138346829Y-109573333D01*
X138348298Y-109620076D01*
X138353916Y-109639409D01*
X138357862Y-109658463D01*
X138360383Y-109678421D01*
X138360386Y-109678433D01*
X138377595Y-109721899D01*
X138379487Y-109727427D01*
X138392530Y-109772321D01*
X138392530Y-109772322D01*
X138402777Y-109789649D01*
X138411335Y-109807119D01*
X138418745Y-109825835D01*
X138446229Y-109863663D01*
X138449437Y-109868547D01*
X138473234Y-109908786D01*
X138473240Y-109908794D01*
X138487469Y-109923022D01*
X138500109Y-109937821D01*
X138511934Y-109954098D01*
X138511936Y-109954099D01*
X138511937Y-109954101D01*
X138547957Y-109983899D01*
X138552268Y-109987821D01*
X138742879Y-110178432D01*
X138896490Y-110332043D01*
X138906337Y-110344333D01*
X138906555Y-110344154D01*
X138911523Y-110350160D01*
X138962123Y-110397677D01*
X138983067Y-110418620D01*
X138983073Y-110418626D01*
X138988563Y-110422883D01*
X138993014Y-110426684D01*
X139027101Y-110458695D01*
X139027103Y-110458696D01*
X139044733Y-110468387D01*
X139061001Y-110479072D01*
X139076904Y-110491408D01*
X139076906Y-110491409D01*
X139076908Y-110491410D01*
X139098246Y-110500643D01*
X139119809Y-110509974D01*
X139125056Y-110512545D01*
X139133569Y-110517225D01*
X139166032Y-110535072D01*
X139185533Y-110540079D01*
X139203931Y-110546378D01*
X139222407Y-110554373D01*
X139268606Y-110561690D01*
X139274280Y-110562865D01*
X139319594Y-110574500D01*
X139339730Y-110574500D01*
X139359129Y-110576027D01*
X139378999Y-110579174D01*
X139425536Y-110574774D01*
X139431373Y-110574500D01*
X140430033Y-110574500D01*
X140445681Y-110576227D01*
X140445708Y-110575946D01*
X140453475Y-110576680D01*
X140453476Y-110576679D01*
X140453477Y-110576680D01*
X140522860Y-110574500D01*
X140552476Y-110574500D01*
X140559378Y-110573627D01*
X140565190Y-110573169D01*
X140611943Y-110571701D01*
X140631272Y-110566084D01*
X140650328Y-110562137D01*
X140670293Y-110559616D01*
X140713770Y-110542401D01*
X140719276Y-110540516D01*
X140764191Y-110527468D01*
X140781515Y-110517221D01*
X140798983Y-110508663D01*
X140817703Y-110501253D01*
X140855542Y-110473759D01*
X140860391Y-110470574D01*
X140900656Y-110446763D01*
X140914897Y-110432520D01*
X140929678Y-110419897D01*
X140945967Y-110408063D01*
X140945969Y-110408059D01*
X140945971Y-110408059D01*
X140957845Y-110393703D01*
X140975776Y-110372028D01*
X140979689Y-110367728D01*
X143430600Y-107916818D01*
X143491923Y-107883333D01*
X143518281Y-107880499D01*
X144180002Y-107880499D01*
X144180008Y-107880499D01*
X144282797Y-107869999D01*
X144449334Y-107814814D01*
X144598656Y-107722712D01*
X144692319Y-107629049D01*
X144753642Y-107595564D01*
X144823334Y-107600548D01*
X144867681Y-107629049D01*
X144961344Y-107722712D01*
X145110666Y-107814814D01*
X145277203Y-107869999D01*
X145379991Y-107880500D01*
X146180008Y-107880499D01*
X146180016Y-107880498D01*
X146180019Y-107880498D01*
X146236302Y-107874748D01*
X146282797Y-107869999D01*
X146449334Y-107814814D01*
X146598656Y-107722712D01*
X146722712Y-107598656D01*
X146814814Y-107449334D01*
X146833648Y-107392495D01*
X146873421Y-107335051D01*
X146937937Y-107308228D01*
X146951354Y-107307500D01*
X148530169Y-107307500D01*
X148597208Y-107327185D01*
X148642963Y-107379989D01*
X148653527Y-107418898D01*
X148657500Y-107457794D01*
X148657501Y-107457796D01*
X148712686Y-107624335D01*
X148712687Y-107624337D01*
X148804786Y-107773651D01*
X148804789Y-107773655D01*
X148928844Y-107897710D01*
X148928848Y-107897713D01*
X149078162Y-107989812D01*
X149078164Y-107989813D01*
X149078166Y-107989814D01*
X149244703Y-108044999D01*
X149347492Y-108055500D01*
X149347497Y-108055500D01*
X150372503Y-108055500D01*
X150372508Y-108055500D01*
X150475297Y-108044999D01*
X150641834Y-107989814D01*
X150791155Y-107897711D01*
X150915211Y-107773655D01*
X151007314Y-107624334D01*
X151062499Y-107457797D01*
X151073000Y-107355008D01*
X151073000Y-106930000D01*
X151622500Y-106930000D01*
X151622500Y-107354985D01*
X151632993Y-107457689D01*
X151632994Y-107457696D01*
X151688141Y-107624118D01*
X151688143Y-107624123D01*
X151780184Y-107773344D01*
X151904155Y-107897315D01*
X152053376Y-107989356D01*
X152053381Y-107989358D01*
X152219803Y-108044505D01*
X152219810Y-108044506D01*
X152322514Y-108054999D01*
X152322527Y-108055000D01*
X152585000Y-108055000D01*
X152585000Y-106930000D01*
X153085000Y-106930000D01*
X153085000Y-108055000D01*
X153347473Y-108055000D01*
X153347485Y-108054999D01*
X153450189Y-108044506D01*
X153450196Y-108044505D01*
X153616618Y-107989358D01*
X153616623Y-107989356D01*
X153765844Y-107897315D01*
X153889815Y-107773344D01*
X153981856Y-107624123D01*
X153981858Y-107624118D01*
X154037005Y-107457696D01*
X154037006Y-107457689D01*
X154047499Y-107354985D01*
X154047500Y-107354972D01*
X154047500Y-106930000D01*
X153085000Y-106930000D01*
X152585000Y-106930000D01*
X151622500Y-106930000D01*
X151073000Y-106930000D01*
X151073000Y-106004992D01*
X151062499Y-105902203D01*
X151007314Y-105735666D01*
X150946633Y-105637288D01*
X150915213Y-105586348D01*
X150915210Y-105586344D01*
X150791155Y-105462289D01*
X150791151Y-105462286D01*
X150641837Y-105370187D01*
X150641835Y-105370186D01*
X150558565Y-105342593D01*
X150475297Y-105315001D01*
X150475295Y-105315000D01*
X150372515Y-105304500D01*
X150372508Y-105304500D01*
X149347492Y-105304500D01*
X149347484Y-105304500D01*
X149244704Y-105315000D01*
X149244703Y-105315001D01*
X149078164Y-105370186D01*
X149078162Y-105370187D01*
X148928848Y-105462286D01*
X148928844Y-105462289D01*
X148804789Y-105586344D01*
X148804786Y-105586348D01*
X148712687Y-105735662D01*
X148712686Y-105735664D01*
X148657501Y-105902203D01*
X148657500Y-105902205D01*
X148653527Y-105941102D01*
X148627131Y-106005794D01*
X148569950Y-106045946D01*
X148530169Y-106052500D01*
X146951354Y-106052500D01*
X146884315Y-106032815D01*
X146838560Y-105980011D01*
X146833648Y-105967504D01*
X146824899Y-105941102D01*
X146814814Y-105910666D01*
X146722712Y-105761344D01*
X146598656Y-105637288D01*
X146449334Y-105545186D01*
X146282797Y-105490001D01*
X146282795Y-105490000D01*
X146180010Y-105479500D01*
X145379998Y-105479500D01*
X145379980Y-105479501D01*
X145277203Y-105490000D01*
X145277200Y-105490001D01*
X145110668Y-105545185D01*
X145110663Y-105545187D01*
X144961342Y-105637289D01*
X144867681Y-105730951D01*
X144806358Y-105764436D01*
X144736666Y-105759452D01*
X144692319Y-105730951D01*
X144598657Y-105637289D01*
X144598656Y-105637288D01*
X144449334Y-105545186D01*
X144282797Y-105490001D01*
X144282795Y-105490000D01*
X144180016Y-105479500D01*
X144180009Y-105479500D01*
X143804385Y-105479500D01*
X143737346Y-105459815D01*
X143691591Y-105407011D01*
X143681647Y-105337853D01*
X143710672Y-105274297D01*
X143716704Y-105267819D01*
X143776812Y-105207712D01*
X143962705Y-105021819D01*
X144024028Y-104988334D01*
X144050386Y-104985500D01*
X144623196Y-104985500D01*
X144641631Y-104984049D01*
X144660069Y-104982598D01*
X144660071Y-104982597D01*
X144660073Y-104982597D01*
X144704367Y-104969728D01*
X144817898Y-104936744D01*
X144959365Y-104853081D01*
X145075581Y-104736865D01*
X145159244Y-104595398D01*
X145205098Y-104437569D01*
X145206586Y-104418657D01*
X145208000Y-104400700D01*
X145208041Y-104399643D01*
X145230336Y-104333426D01*
X145284891Y-104289774D01*
X145331946Y-104280499D01*
X147083054Y-104280499D01*
X147150093Y-104300184D01*
X147195848Y-104352988D01*
X147206959Y-104399643D01*
X147207000Y-104400700D01*
X147209901Y-104437566D01*
X147209902Y-104437573D01*
X147255754Y-104595393D01*
X147255755Y-104595396D01*
X147255756Y-104595398D01*
X147279067Y-104634815D01*
X147339417Y-104736862D01*
X147339423Y-104736870D01*
X147455629Y-104853076D01*
X147455633Y-104853079D01*
X147455635Y-104853081D01*
X147597102Y-104936744D01*
X147638724Y-104948836D01*
X147754926Y-104982597D01*
X147754929Y-104982597D01*
X147754931Y-104982598D01*
X147767222Y-104983565D01*
X147791804Y-104985500D01*
X147791806Y-104985500D01*
X149573196Y-104985500D01*
X149591631Y-104984049D01*
X149610069Y-104982598D01*
X149610071Y-104982597D01*
X149610073Y-104982597D01*
X149654367Y-104969728D01*
X149767898Y-104936744D01*
X149909365Y-104853081D01*
X149958626Y-104803820D01*
X150019949Y-104770334D01*
X150046308Y-104767500D01*
X151232862Y-104767500D01*
X151299901Y-104787185D01*
X151345656Y-104839989D01*
X151350564Y-104852488D01*
X151377686Y-104934334D01*
X151469788Y-105083656D01*
X151593844Y-105207712D01*
X151743166Y-105299814D01*
X151795591Y-105317186D01*
X151853035Y-105356957D01*
X151879858Y-105421473D01*
X151867543Y-105490249D01*
X151844268Y-105522572D01*
X151780182Y-105586658D01*
X151688143Y-105735876D01*
X151688141Y-105735881D01*
X151632994Y-105902303D01*
X151632993Y-105902310D01*
X151622500Y-106005014D01*
X151622500Y-106430000D01*
X154047500Y-106430000D01*
X154047500Y-106005027D01*
X154047499Y-106005014D01*
X154037006Y-105902310D01*
X154037005Y-105902303D01*
X153981858Y-105735881D01*
X153981856Y-105735876D01*
X153889815Y-105586655D01*
X153865355Y-105562195D01*
X153831870Y-105500872D01*
X153836854Y-105431180D01*
X153878726Y-105375247D01*
X153944190Y-105350830D01*
X153979003Y-105353263D01*
X153984810Y-105354506D01*
X154087519Y-105364999D01*
X154224999Y-105364999D01*
X154225000Y-105364998D01*
X154225000Y-104390000D01*
X154725000Y-104390000D01*
X154725000Y-105364999D01*
X154862472Y-105364999D01*
X154862486Y-105364998D01*
X154965197Y-105354505D01*
X155131619Y-105299358D01*
X155131624Y-105299356D01*
X155280845Y-105207315D01*
X155404815Y-105083345D01*
X155496856Y-104934124D01*
X155496858Y-104934119D01*
X155552005Y-104767697D01*
X155552006Y-104767690D01*
X155562499Y-104664986D01*
X155562500Y-104664973D01*
X155562500Y-104390000D01*
X154725000Y-104390000D01*
X154225000Y-104390000D01*
X154225000Y-102915000D01*
X154725000Y-102915000D01*
X154725000Y-103890000D01*
X155562499Y-103890000D01*
X155562499Y-103615028D01*
X155562498Y-103615013D01*
X155552005Y-103512302D01*
X155496858Y-103345880D01*
X155496856Y-103345875D01*
X155404815Y-103196654D01*
X155280845Y-103072684D01*
X155131624Y-102980643D01*
X155131619Y-102980641D01*
X154965197Y-102925494D01*
X154965190Y-102925493D01*
X154862486Y-102915000D01*
X154725000Y-102915000D01*
X154225000Y-102915000D01*
X154087527Y-102915000D01*
X154087512Y-102915001D01*
X153984802Y-102925494D01*
X153818380Y-102980641D01*
X153818375Y-102980643D01*
X153669154Y-103072684D01*
X153545183Y-103196655D01*
X153545179Y-103196660D01*
X153543326Y-103199665D01*
X153541518Y-103201290D01*
X153540702Y-103202323D01*
X153540525Y-103202183D01*
X153491374Y-103246385D01*
X153422411Y-103257601D01*
X153358331Y-103229752D01*
X153332253Y-103199653D01*
X153332237Y-103199628D01*
X153330212Y-103196344D01*
X153206156Y-103072288D01*
X153056834Y-102980186D01*
X152924565Y-102936356D01*
X152867121Y-102896584D01*
X152840298Y-102832068D01*
X152852613Y-102763293D01*
X152900156Y-102712093D01*
X152950967Y-102695293D01*
X153002797Y-102689999D01*
X153169334Y-102634814D01*
X153318656Y-102542712D01*
X153442712Y-102418656D01*
X153534814Y-102269334D01*
X153589999Y-102102797D01*
X153600500Y-102000009D01*
X153600499Y-101338279D01*
X153620183Y-101271241D01*
X153636813Y-101250604D01*
X154890600Y-99996819D01*
X154951923Y-99963334D01*
X154978281Y-99960500D01*
X155034644Y-99960500D01*
X155034646Y-99960500D01*
X155219803Y-99921144D01*
X155392730Y-99844151D01*
X155545871Y-99732888D01*
X155672533Y-99592216D01*
X155767179Y-99428284D01*
X155825674Y-99248256D01*
X155845460Y-99060000D01*
X155825674Y-98871744D01*
X155767179Y-98691716D01*
X155672533Y-98527784D01*
X155545871Y-98387112D01*
X155545870Y-98387111D01*
X155392734Y-98275851D01*
X155392729Y-98275848D01*
X155219807Y-98198857D01*
X155219802Y-98198855D01*
X155074001Y-98167865D01*
X155034646Y-98159500D01*
X154845354Y-98159500D01*
X154812897Y-98166398D01*
X154660197Y-98198855D01*
X154660192Y-98198857D01*
X154487270Y-98275848D01*
X154487265Y-98275851D01*
X154334129Y-98387111D01*
X154207466Y-98527785D01*
X154112821Y-98691715D01*
X154112818Y-98691722D01*
X154054327Y-98871740D01*
X154054326Y-98871744D01*
X154041854Y-98990408D01*
X154037011Y-99036489D01*
X154010426Y-99101103D01*
X154001371Y-99111208D01*
X153812180Y-99300400D01*
X153750857Y-99333885D01*
X153681166Y-99328901D01*
X153625232Y-99287030D01*
X153600815Y-99221565D01*
X153600499Y-99212719D01*
X153600499Y-99199998D01*
X153600498Y-99199981D01*
X153589999Y-99097203D01*
X153589998Y-99097200D01*
X153569880Y-99036489D01*
X153534814Y-98930666D01*
X153442712Y-98781344D01*
X153318656Y-98657288D01*
X153318653Y-98657286D01*
X153318628Y-98657266D01*
X153318613Y-98657245D01*
X153313549Y-98652181D01*
X153314414Y-98651315D01*
X153278251Y-98600245D01*
X153275113Y-98530445D01*
X153310208Y-98470030D01*
X153318628Y-98462734D01*
X153318654Y-98462713D01*
X153318656Y-98462712D01*
X153442712Y-98338656D01*
X153534814Y-98189334D01*
X153589999Y-98022797D01*
X153600500Y-97920009D01*
X153600499Y-97119992D01*
X153599221Y-97107486D01*
X153589999Y-97017203D01*
X153589998Y-97017200D01*
X153547277Y-96888277D01*
X153534814Y-96850666D01*
X153442712Y-96701344D01*
X153349049Y-96607681D01*
X153315564Y-96546358D01*
X153320548Y-96476666D01*
X153349049Y-96432319D01*
X153442712Y-96338656D01*
X153445954Y-96333400D01*
X153497903Y-96286677D01*
X153551491Y-96274500D01*
X153576114Y-96274500D01*
X153643153Y-96294185D01*
X153663795Y-96310819D01*
X154029951Y-96676975D01*
X154060201Y-96726338D01*
X154112818Y-96888277D01*
X154112821Y-96888284D01*
X154207467Y-97052216D01*
X154334129Y-97192888D01*
X154487265Y-97304148D01*
X154487270Y-97304151D01*
X154660192Y-97381142D01*
X154660197Y-97381144D01*
X154845354Y-97420500D01*
X154845355Y-97420500D01*
X155034644Y-97420500D01*
X155034646Y-97420500D01*
X155219803Y-97381144D01*
X155392730Y-97304151D01*
X155545871Y-97192888D01*
X155672533Y-97052216D01*
X155767179Y-96888284D01*
X155825674Y-96708256D01*
X155845460Y-96520000D01*
X155825674Y-96331744D01*
X155767179Y-96151716D01*
X155672533Y-95987784D01*
X155545871Y-95847112D01*
X155545870Y-95847111D01*
X155392734Y-95735851D01*
X155392729Y-95735848D01*
X155219807Y-95658857D01*
X155219805Y-95658856D01*
X155161850Y-95646537D01*
X155100369Y-95613343D01*
X155099952Y-95612928D01*
X154518766Y-95031742D01*
X154506984Y-95018109D01*
X154503604Y-95013569D01*
X154492539Y-94998706D01*
X154492537Y-94998704D01*
X154492538Y-94998704D01*
X154464932Y-94975541D01*
X154452285Y-94964928D01*
X154448310Y-94961286D01*
X154442441Y-94955417D01*
X154442440Y-94955416D01*
X154442438Y-94955414D01*
X154416584Y-94934972D01*
X154357427Y-94885333D01*
X154351394Y-94881365D01*
X154351422Y-94881321D01*
X154344961Y-94877204D01*
X154344934Y-94877250D01*
X154338790Y-94873460D01*
X154268808Y-94840827D01*
X154199815Y-94806177D01*
X154193031Y-94803708D01*
X154193049Y-94803658D01*
X154185807Y-94801141D01*
X154185791Y-94801191D01*
X154178938Y-94798920D01*
X154103311Y-94783304D01*
X154028181Y-94765498D01*
X154021014Y-94764661D01*
X154021020Y-94764607D01*
X154013405Y-94763829D01*
X154013401Y-94763883D01*
X154006210Y-94763253D01*
X153929018Y-94765500D01*
X153551491Y-94765500D01*
X153484452Y-94745815D01*
X153445954Y-94706600D01*
X153442711Y-94701343D01*
X153318657Y-94577289D01*
X153318656Y-94577288D01*
X153169334Y-94485186D01*
X153002797Y-94430001D01*
X153002795Y-94430000D01*
X152900010Y-94419500D01*
X151899998Y-94419500D01*
X151899980Y-94419501D01*
X151797203Y-94430000D01*
X151797200Y-94430001D01*
X151630668Y-94485185D01*
X151630663Y-94485187D01*
X151481342Y-94577289D01*
X151357289Y-94701342D01*
X151265187Y-94850663D01*
X151265186Y-94850666D01*
X151210001Y-95017203D01*
X151210001Y-95017204D01*
X151210000Y-95017204D01*
X151199500Y-95119983D01*
X151199500Y-95602113D01*
X151179815Y-95669152D01*
X151163181Y-95689794D01*
X148286181Y-98566794D01*
X148224858Y-98600279D01*
X148155166Y-98595295D01*
X148099233Y-98553423D01*
X148074816Y-98487959D01*
X148074500Y-98479113D01*
X148074500Y-93018975D01*
X148094185Y-92951936D01*
X148146989Y-92906181D01*
X148159489Y-92901271D01*
X148239334Y-92874814D01*
X148388656Y-92782712D01*
X148512712Y-92658656D01*
X148604814Y-92509334D01*
X148659999Y-92342797D01*
X148670500Y-92240009D01*
X148670500Y-91571187D01*
X153189500Y-91571187D01*
X153207409Y-91690000D01*
X153228604Y-91830615D01*
X153228605Y-91830617D01*
X153228606Y-91830623D01*
X153305938Y-92081326D01*
X153419767Y-92317696D01*
X153419768Y-92317697D01*
X153419770Y-92317700D01*
X153419772Y-92317704D01*
X153517520Y-92461073D01*
X153567567Y-92534479D01*
X153746014Y-92726801D01*
X153746018Y-92726804D01*
X153746019Y-92726805D01*
X153951143Y-92890386D01*
X154178357Y-93021568D01*
X154422584Y-93117420D01*
X154678370Y-93175802D01*
X154678376Y-93175802D01*
X154678379Y-93175803D01*
X154874500Y-93190500D01*
X154874506Y-93190500D01*
X155005500Y-93190500D01*
X155201620Y-93175803D01*
X155201622Y-93175802D01*
X155201630Y-93175802D01*
X155457416Y-93117420D01*
X155701643Y-93021568D01*
X155928857Y-92890386D01*
X156133981Y-92726805D01*
X156312433Y-92534479D01*
X156460228Y-92317704D01*
X156574063Y-92081323D01*
X156651396Y-91830615D01*
X156690500Y-91571182D01*
X156690500Y-91308818D01*
X156651396Y-91049385D01*
X156574063Y-90798677D01*
X156562121Y-90773880D01*
X156460232Y-90562303D01*
X156460231Y-90562302D01*
X156460230Y-90562301D01*
X156460228Y-90562296D01*
X156312433Y-90345521D01*
X156302441Y-90334753D01*
X156133985Y-90153198D01*
X156063876Y-90097288D01*
X155928857Y-89989614D01*
X155701643Y-89858432D01*
X155457416Y-89762580D01*
X155457411Y-89762578D01*
X155457402Y-89762576D01*
X155239818Y-89712914D01*
X155201630Y-89704198D01*
X155201629Y-89704197D01*
X155201625Y-89704197D01*
X155201620Y-89704196D01*
X155005500Y-89689500D01*
X155005494Y-89689500D01*
X154874506Y-89689500D01*
X154874500Y-89689500D01*
X154678379Y-89704196D01*
X154678374Y-89704197D01*
X154422597Y-89762576D01*
X154422578Y-89762582D01*
X154178356Y-89858432D01*
X153951143Y-89989614D01*
X153746014Y-90153198D01*
X153567567Y-90345520D01*
X153419768Y-90562302D01*
X153419767Y-90562303D01*
X153305938Y-90798673D01*
X153228606Y-91049376D01*
X153228605Y-91049381D01*
X153228604Y-91049385D01*
X153219588Y-91109202D01*
X153189500Y-91308812D01*
X153189500Y-91571187D01*
X148670500Y-91571187D01*
X148670499Y-90639992D01*
X148667682Y-90612420D01*
X148659999Y-90537203D01*
X148659998Y-90537200D01*
X148604814Y-90370666D01*
X148512712Y-90221344D01*
X148388656Y-90097288D01*
X148239334Y-90005186D01*
X148072797Y-89950001D01*
X148072795Y-89950000D01*
X147970010Y-89939500D01*
X146669998Y-89939500D01*
X146669981Y-89939501D01*
X146567203Y-89950000D01*
X146567200Y-89950001D01*
X146400668Y-90005185D01*
X146400663Y-90005187D01*
X146251342Y-90097289D01*
X146127288Y-90221343D01*
X146127285Y-90221347D01*
X146031550Y-90376558D01*
X145979602Y-90423283D01*
X145910640Y-90434504D01*
X145846558Y-90406661D01*
X145838331Y-90399143D01*
X145691078Y-90251891D01*
X145497578Y-90116399D01*
X145283492Y-90016570D01*
X145283486Y-90016567D01*
X145070000Y-89959364D01*
X145070000Y-91004498D01*
X144962315Y-90955320D01*
X144855763Y-90940000D01*
X144784237Y-90940000D01*
X144677685Y-90955320D01*
X144570000Y-91004498D01*
X144570000Y-89959364D01*
X144569999Y-89959364D01*
X144356513Y-90016567D01*
X144356507Y-90016570D01*
X144142422Y-90116399D01*
X144142420Y-90116400D01*
X143948926Y-90251886D01*
X143948920Y-90251891D01*
X143781891Y-90418920D01*
X143781886Y-90418926D01*
X143646400Y-90612420D01*
X143646399Y-90612422D01*
X143546570Y-90826507D01*
X143546566Y-90826516D01*
X143485432Y-91054673D01*
X143485430Y-91054684D01*
X143473592Y-91189999D01*
X143473593Y-91190000D01*
X144386314Y-91190000D01*
X144360507Y-91230156D01*
X144320000Y-91368111D01*
X144320000Y-91511889D01*
X144360507Y-91649844D01*
X144386314Y-91690000D01*
X143473592Y-91690000D01*
X143485430Y-91825315D01*
X143485432Y-91825326D01*
X143546566Y-92053483D01*
X143546570Y-92053492D01*
X143646399Y-92267577D01*
X143646400Y-92267579D01*
X143781886Y-92461073D01*
X143781891Y-92461079D01*
X143948917Y-92628105D01*
X144142421Y-92763600D01*
X144356507Y-92863429D01*
X144356516Y-92863433D01*
X144570000Y-92920634D01*
X144570000Y-91875501D01*
X144677685Y-91924680D01*
X144784237Y-91940000D01*
X144855763Y-91940000D01*
X144962315Y-91924680D01*
X145070000Y-91875501D01*
X145070000Y-92920633D01*
X145283483Y-92863433D01*
X145283492Y-92863429D01*
X145497577Y-92763600D01*
X145497579Y-92763599D01*
X145691073Y-92628113D01*
X145691079Y-92628108D01*
X145838331Y-92480857D01*
X145899654Y-92447372D01*
X145969346Y-92452356D01*
X146025279Y-92494228D01*
X146031551Y-92503441D01*
X146035186Y-92509334D01*
X146127288Y-92658656D01*
X146251344Y-92782712D01*
X146400666Y-92874814D01*
X146480505Y-92901269D01*
X146537949Y-92941041D01*
X146564772Y-93005557D01*
X146565500Y-93018975D01*
X146565500Y-98948500D01*
X146564191Y-98966469D01*
X146560684Y-98990408D01*
X146565264Y-99042741D01*
X146565500Y-99048148D01*
X146565500Y-99056446D01*
X146569325Y-99089174D01*
X146576056Y-99166110D01*
X146577516Y-99173177D01*
X146577464Y-99173187D01*
X146579123Y-99180667D01*
X146579174Y-99180655D01*
X146580839Y-99187680D01*
X146580839Y-99187682D01*
X146580840Y-99187684D01*
X146585320Y-99199992D01*
X146607247Y-99260240D01*
X146631535Y-99333534D01*
X146634586Y-99340075D01*
X146634536Y-99340098D01*
X146637876Y-99346997D01*
X146637925Y-99346973D01*
X146641162Y-99353420D01*
X146641164Y-99353424D01*
X146683599Y-99417944D01*
X146724131Y-99483656D01*
X146728611Y-99489322D01*
X146728569Y-99489355D01*
X146733401Y-99495286D01*
X146733443Y-99495252D01*
X146738081Y-99500780D01*
X146738085Y-99500785D01*
X146766166Y-99527278D01*
X146794247Y-99553772D01*
X147192492Y-99952016D01*
X147225977Y-100013339D01*
X147223888Y-100074291D01*
X147209901Y-100122432D01*
X147209901Y-100122433D01*
X147207000Y-100159300D01*
X147206959Y-100160357D01*
X147184664Y-100226574D01*
X147130108Y-100270225D01*
X147083054Y-100279500D01*
X145331444Y-100279500D01*
X145264405Y-100259815D01*
X145218650Y-100207011D01*
X145207539Y-100160358D01*
X145207500Y-100159353D01*
X145204600Y-100122511D01*
X145204599Y-100122504D01*
X145158783Y-99964806D01*
X145158782Y-99964803D01*
X145075185Y-99823447D01*
X145075178Y-99823438D01*
X144959061Y-99707321D01*
X144959052Y-99707314D01*
X144817696Y-99623717D01*
X144817693Y-99623716D01*
X144659995Y-99577900D01*
X144659989Y-99577899D01*
X144623144Y-99575000D01*
X143982500Y-99575000D01*
X143982500Y-100501000D01*
X143962815Y-100568039D01*
X143910011Y-100613794D01*
X143858500Y-100625000D01*
X142260205Y-100625000D01*
X142260204Y-100625001D01*
X142260399Y-100627488D01*
X142307199Y-100788575D01*
X142306999Y-100858444D01*
X142269056Y-100917114D01*
X142205418Y-100945957D01*
X142136288Y-100935816D01*
X142100441Y-100910850D01*
X141314589Y-100124998D01*
X142260204Y-100124998D01*
X142260205Y-100125000D01*
X143482500Y-100125000D01*
X143482500Y-99575000D01*
X142841856Y-99575000D01*
X142805010Y-99577899D01*
X142805004Y-99577900D01*
X142647306Y-99623716D01*
X142647303Y-99623717D01*
X142505947Y-99707314D01*
X142505938Y-99707321D01*
X142389821Y-99823438D01*
X142389814Y-99823447D01*
X142306218Y-99964801D01*
X142260399Y-100122513D01*
X142260204Y-100124998D01*
X141314589Y-100124998D01*
X140911818Y-99722227D01*
X140878333Y-99660904D01*
X140875499Y-99634546D01*
X140875499Y-98807498D01*
X140875498Y-98807481D01*
X140864999Y-98704703D01*
X140864998Y-98704700D01*
X140862095Y-98695938D01*
X140809814Y-98538166D01*
X140717712Y-98388844D01*
X140593656Y-98264788D01*
X140444334Y-98172686D01*
X140277797Y-98117501D01*
X140277795Y-98117500D01*
X140175010Y-98107000D01*
X139224998Y-98107000D01*
X139224980Y-98107001D01*
X139122203Y-98117500D01*
X139122200Y-98117501D01*
X138955668Y-98172685D01*
X138955663Y-98172687D01*
X138806342Y-98264789D01*
X138682289Y-98388842D01*
X138590187Y-98538163D01*
X138590185Y-98538168D01*
X138574444Y-98585669D01*
X138541693Y-98684505D01*
X138501923Y-98741949D01*
X138437407Y-98768772D01*
X138423989Y-98769500D01*
X138102337Y-98769500D01*
X138035298Y-98749815D01*
X137989543Y-98697011D01*
X137989058Y-98695938D01*
X137987181Y-98691722D01*
X137987179Y-98691716D01*
X137892533Y-98527784D01*
X137765871Y-98387112D01*
X137765870Y-98387111D01*
X137612734Y-98275851D01*
X137612729Y-98275848D01*
X137439807Y-98198857D01*
X137439802Y-98198855D01*
X137294001Y-98167865D01*
X137254646Y-98159500D01*
X137065354Y-98159500D01*
X137032897Y-98166398D01*
X136880197Y-98198855D01*
X136880192Y-98198857D01*
X136707270Y-98275848D01*
X136707265Y-98275851D01*
X136554129Y-98387111D01*
X136427466Y-98527785D01*
X136332821Y-98691715D01*
X136332818Y-98691722D01*
X136274327Y-98871740D01*
X136274326Y-98871744D01*
X136254540Y-99060000D01*
X132080500Y-99060000D01*
X132080500Y-96770000D01*
X138525001Y-96770000D01*
X138525001Y-97107486D01*
X138535494Y-97210197D01*
X138590641Y-97376619D01*
X138590643Y-97376624D01*
X138682684Y-97525845D01*
X138806654Y-97649815D01*
X138955875Y-97741856D01*
X138955880Y-97741858D01*
X139122302Y-97797005D01*
X139122309Y-97797006D01*
X139225019Y-97807499D01*
X139449999Y-97807499D01*
X139450000Y-97807498D01*
X139450000Y-96770000D01*
X139950000Y-96770000D01*
X139950000Y-97807499D01*
X140174972Y-97807499D01*
X140174986Y-97807498D01*
X140277697Y-97797005D01*
X140444119Y-97741858D01*
X140444124Y-97741856D01*
X140593345Y-97649815D01*
X140717315Y-97525845D01*
X140809356Y-97376624D01*
X140809358Y-97376619D01*
X140864505Y-97210197D01*
X140864506Y-97210190D01*
X140874999Y-97107486D01*
X140875000Y-97107473D01*
X140875000Y-96770000D01*
X139950000Y-96770000D01*
X139450000Y-96770000D01*
X138525001Y-96770000D01*
X132080500Y-96770000D01*
X132080500Y-96270000D01*
X138525000Y-96270000D01*
X139450000Y-96270000D01*
X139450000Y-95232500D01*
X139950000Y-95232500D01*
X139950000Y-96270000D01*
X140874999Y-96270000D01*
X140874999Y-95932528D01*
X140874998Y-95932513D01*
X140864505Y-95829802D01*
X140809358Y-95663380D01*
X140809356Y-95663375D01*
X140717315Y-95514154D01*
X140593345Y-95390184D01*
X140444124Y-95298143D01*
X140444119Y-95298141D01*
X140277697Y-95242994D01*
X140277690Y-95242993D01*
X140174986Y-95232500D01*
X139950000Y-95232500D01*
X139450000Y-95232500D01*
X139225029Y-95232500D01*
X139225012Y-95232501D01*
X139122302Y-95242994D01*
X138955880Y-95298141D01*
X138955875Y-95298143D01*
X138806654Y-95390184D01*
X138682684Y-95514154D01*
X138590643Y-95663375D01*
X138590641Y-95663380D01*
X138535494Y-95829802D01*
X138535493Y-95829809D01*
X138525000Y-95932513D01*
X138525000Y-96270000D01*
X132080500Y-96270000D01*
X132080500Y-91571187D01*
X135409500Y-91571187D01*
X135427409Y-91690000D01*
X135448604Y-91830615D01*
X135448605Y-91830617D01*
X135448606Y-91830623D01*
X135525938Y-92081326D01*
X135639767Y-92317696D01*
X135639768Y-92317697D01*
X135639770Y-92317700D01*
X135639772Y-92317704D01*
X135737520Y-92461073D01*
X135787567Y-92534479D01*
X135966014Y-92726801D01*
X135966018Y-92726804D01*
X135966019Y-92726805D01*
X136171143Y-92890386D01*
X136398357Y-93021568D01*
X136642584Y-93117420D01*
X136898370Y-93175802D01*
X136898376Y-93175802D01*
X136898379Y-93175803D01*
X137094500Y-93190500D01*
X137094506Y-93190500D01*
X137225500Y-93190500D01*
X137421620Y-93175803D01*
X137421622Y-93175802D01*
X137421630Y-93175802D01*
X137677416Y-93117420D01*
X137921643Y-93021568D01*
X138148857Y-92890386D01*
X138353981Y-92726805D01*
X138532433Y-92534479D01*
X138680228Y-92317704D01*
X138794063Y-92081323D01*
X138871396Y-91830615D01*
X138910500Y-91571182D01*
X138910500Y-91308818D01*
X138871396Y-91049385D01*
X138794063Y-90798677D01*
X138782121Y-90773880D01*
X138680232Y-90562303D01*
X138680231Y-90562302D01*
X138680230Y-90562301D01*
X138680228Y-90562296D01*
X138532433Y-90345521D01*
X138522441Y-90334753D01*
X138353985Y-90153198D01*
X138283876Y-90097288D01*
X138148857Y-89989614D01*
X137921643Y-89858432D01*
X137677416Y-89762580D01*
X137677411Y-89762578D01*
X137677402Y-89762576D01*
X137459818Y-89712914D01*
X137421630Y-89704198D01*
X137421629Y-89704197D01*
X137421625Y-89704197D01*
X137421620Y-89704196D01*
X137225500Y-89689500D01*
X137225494Y-89689500D01*
X137094506Y-89689500D01*
X137094500Y-89689500D01*
X136898379Y-89704196D01*
X136898374Y-89704197D01*
X136642597Y-89762576D01*
X136642578Y-89762582D01*
X136398356Y-89858432D01*
X136171143Y-89989614D01*
X135966014Y-90153198D01*
X135787567Y-90345520D01*
X135639768Y-90562302D01*
X135639767Y-90562303D01*
X135525938Y-90798673D01*
X135448606Y-91049376D01*
X135448605Y-91049381D01*
X135448604Y-91049385D01*
X135439588Y-91109202D01*
X135409500Y-91308812D01*
X135409500Y-91571187D01*
X132080500Y-91571187D01*
X132080500Y-86484500D01*
X132100185Y-86417461D01*
X132152989Y-86371706D01*
X132204500Y-86360500D01*
X159895500Y-86360500D01*
X159962539Y-86380185D01*
G37*
%TD.AperFunction*%
%TD*%
M02*
